<?xml version="1.0" encoding="utf-8"?>
<!-- Generator: Adobe Illustrator 16.0.0, SVG Export Plug-In . SVG Version: 6.00 Build 0)  -->
<!DOCTYPE svg PUBLIC "-//W3C//DTD SVG 1.1//EN" "http://www.w3.org/Graphics/SVG/1.1/DTD/svg11.dtd">
<svg version="1.1" id="Group_10806" opacity="0.1" xmlns="http://www.w3.org/2000/svg" xmlns:xlink="http://www.w3.org/1999/xlink"
	 x="0px" y="0px" width="1440px" height="529.715px" viewBox="0 0 1440 529.715" enable-background="new 0 0 1440 529.715"
	 xml:space="preserve">
<path id="Path_3419" d="M1361.343,62.871c-6.21-0.015-11.233-5.059-11.222-11.269c0.014-6.208,5.057-11.231,11.265-11.22
	c6.209,0.013,11.231,5.056,11.22,11.265S1367.552,62.88,1361.343,62.871z"/>
<path id="Path_3420" d="M1226.402,77.449c6.209,0.012,11.232,5.054,11.221,11.263l-0.117,58.816l-0.006,1.743
	c-0.012,6.209-5.055,11.234-11.264,11.222c0,0,0,0-0.001,0c-6.207-0.012-11.229-5.054-11.217-11.261c0-0.001,0-0.003,0-0.005v-1.743
	l0.049-24.72l0.069-34.1c0.014-6.207,5.055-11.228,11.262-11.215C1226.399,77.449,1226.4,77.449,1226.402,77.449z"/>
<path id="Path_3421" d="M1102.596,146.844c-0.012,6.208-5.054,11.23-11.262,11.218c0,0-0.001,0-0.002,0
	c-6.209-0.012-11.232-5.055-11.221-11.264l0.1-47.88l0.035-17.255c0.013-6.208,5.056-11.23,11.264-11.218c0.002,0,0.004,0,0.006,0
	c6.206,0.011,11.229,5.051,11.217,11.258c0,0.002,0,0.004,0,0.006l-0.071,35L1102.596,146.844z"/>
<path id="Path_3422" d="M1046.381,147.842c-6.207-0.011-11.23-5.053-11.219-11.261v-0.001l0.011-5.5l0.011-4.88
	c0.014-6.208,5.056-11.23,11.264-11.218c6.208,0.01,11.232,5.05,11.223,11.259c0,0.001,0,0.003,0,0.005l-0.021,10.382
	C1057.634,142.836,1052.589,147.856,1046.381,147.842z"/>
<path id="Path_3423" d="M1136.355,129.408c6.208,0.011,11.23,5.053,11.22,11.261c0,0.001,0,0.002,0,0.004l-0.013,6.67l-0.041,20.381
	c-0.015,6.208-5.057,11.23-11.266,11.219c-6.208-0.013-11.23-5.056-11.218-11.264c0,0,0,0,0-0.001l0.04-20.381l0.012-6.671
	C1125.104,134.417,1130.147,129.396,1136.355,129.408z"/>
<path id="Path_3424" d="M1271.259,134.469c6.209,0.012,11.231,5.056,11.22,11.265c0,0,0,0,0,0v1.888l-0.029,13.061
	c-0.012,6.208-5.055,11.23-11.262,11.218c0,0-0.001,0-0.002,0c-6.209-0.012-11.232-5.055-11.222-11.264l0.028-13.061v-1.887
	C1260.004,139.479,1265.049,134.457,1271.259,134.469C1271.258,134.469,1271.258,134.469,1271.259,134.469z"/>
<path id="Path_3425" d="M1001.322,193.528c-6.209-0.011-11.233-5.052-11.223-11.261c0-0.001,0-0.003,0-0.005l0.071-35.23h0.101
	c0.525-5.77,5.365-10.187,11.16-10.183c5.791,0.025,10.609,4.458,11.115,10.228h0.105l-0.07,35.232
	C1012.569,188.516,1007.529,193.538,1001.322,193.528z"/>
<path id="Path_3426" d="M1192.536,147.438l-0.063,31.7c-0.013,6.208-5.055,11.23-11.262,11.218c-0.002,0-0.004,0-0.005,0
	c-6.207-0.01-11.231-5.05-11.222-11.257c0-0.002,0-0.005,0-0.007l0.064-31.7l0.061-30.552c0.014-6.21,5.059-11.233,11.269-11.221
	c6.208,0.015,11.229,5.058,11.217,11.265l-0.013,5.832L1192.536,147.438z"/>
<path id="Path_3427" d="M1136.477,70.533c6.209,0.013,11.232,5.056,11.22,11.266l0,0l-0.035,17.256l-0.028,13.465
	c-0.01,6.206-5.049,11.229-11.254,11.219c-0.004,0-0.007,0-0.01,0c-6.208-0.011-11.232-5.053-11.221-11.261c0-0.001,0-0.002,0-0.003
	l0.063-30.722c0.012-6.209,5.055-11.232,11.264-11.22C1136.476,70.533,1136.476,70.533,1136.477,70.533z"/>
<path id="Path_3428" d="M731.631,128.943c-6.207-0.012-11.23-5.053-11.219-11.26c0,0,0-0.001,0-0.001l0.062-30.726
	c0.013-6.209,5.056-11.232,11.265-11.222c6.209,0.013,11.23,5.056,11.219,11.264c0,0,0,0.001,0,0.001v0.721l-0.063,30.006
	c-0.01,6.206-5.049,11.228-11.254,11.218C731.637,128.943,731.634,128.943,731.631,128.943z"/>
<path id="Path_3429" d="M1136.506,55.314c-6.207-0.011-11.23-5.052-11.219-11.259c0-0.002,0-0.004,0-0.006
	c0.008-6.205,5.046-11.229,11.252-11.22c0.004,0,0.008,0,0.012,0c6.207,0.01,11.23,5.051,11.221,11.258c0,0.002,0,0.005,0,0.007
	c-0.011,6.208-5.051,11.23-11.258,11.22C1136.511,55.314,1136.508,55.314,1136.506,55.314z"/>
<path id="Path_3430" d="M821.58,123.13c-6.207-0.012-11.23-5.053-11.219-11.261c0-0.001,0-0.003,0-0.004l0.063-30.722
	c0.012-6.208,5.055-11.23,11.264-11.218h0.002c6.207,0.01,11.23,5.051,11.221,11.258c0,0.002,0,0.005,0,0.007l-0.064,30.722
	c-0.01,6.205-5.049,11.228-11.254,11.218C821.588,123.13,821.584,123.13,821.58,123.13z"/>
<path id="Path_3431" d="M776.667,96.414c6.209,0.013,11.232,5.056,11.22,11.265l-0.043,22.9l-0.033,16.046l-0.028,13.06
	c-0.013,6.208-5.055,11.231-11.263,11.219c0,0-0.001,0-0.002,0c-6.207-0.013-11.23-5.055-11.22-11.263l0.028-13.062l0.076-38.944
	C765.414,101.426,770.457,96.402,776.667,96.414z"/>
<path id="Path_3432" d="M821.57,128.778c6.209,0.014,11.232,5.057,11.221,11.266l-0.013,6.671l-0.015,7.22
	c-0.013,6.208-5.055,11.231-11.264,11.219h-0.002c-6.209-0.013-11.232-5.056-11.221-11.265l0.016-7.222l0.012-6.671
	C810.321,133.789,815.363,128.768,821.57,128.778z"/>
<path id="Path_3433" d="M776.695,81.072c-6.207-0.013-11.229-5.055-11.217-11.263c0,0,0,0,0,0
	c0.01-6.208,5.051-11.231,11.258-11.221c0.002,0,0.004,0,0.006,0c6.209,0.013,11.232,5.056,11.221,11.265
	C787.95,76.063,782.906,81.085,776.695,81.072L776.695,81.072z"/>
<path id="Path_3434" d="M877.76,140.415c-0.014,6.209-5.057,11.232-11.266,11.221c-6.209-0.014-11.231-5.057-11.221-11.265
	l0.135-67.273c0.013-6.208,5.055-11.231,11.264-11.219c0,0,0,0,0.001,0c6.208,0.011,11.232,5.052,11.222,11.26
	c0,0.002,0,0.003,0,0.004l-0.1,48.944L877.76,140.415z"/>
<path id="Path_3435" d="M911.65,59.05c-6.207-0.011-11.229-5.052-11.219-11.258c0-0.002,0-0.004,0-0.007
	c0.01-6.205,5.047-11.228,11.252-11.219c0.004,0,0.008,0,0.013,0c6.209,0.011,11.233,5.054,11.222,11.263l0,0
	C922.904,54.039,917.86,59.063,911.65,59.05L911.65,59.05z"/>
<path id="Path_3436" d="M911.615,76.623c6.207,0.012,11.23,5.055,11.219,11.263c0,0.001,0,0.001,0,0.002l-0.035,17.641
	c-0.012,6.208-5.055,11.232-11.264,11.221l0,0c-6.209-0.012-11.232-5.055-11.22-11.264c0,0,0-0.001,0-0.001l0.034-17.644
	C900.363,81.633,905.406,76.61,911.615,76.623z"/>
<path id="Path_3437" d="M956.469,134.554c-6.209-0.012-11.231-5.054-11.22-11.262l0.03-15.275
	c0.013-6.207,5.053-11.229,11.26-11.221c6.209,0.013,11.232,5.056,11.221,11.265l-0.033,15.275
	C967.715,129.542,962.675,134.565,956.469,134.554z"/>
<path id="Path_3438" d="M1406.342,48.802c6.209,0.014,11.232,5.059,11.22,11.269l-0.028,14.159l-0.09,44.482
	c-0.012,6.21-5.056,11.234-11.266,11.222l0,0c-6.209-0.015-11.23-5.058-11.219-11.267l0.039-19.11l0.08-39.53
	C1395.088,53.817,1400.131,48.792,1406.342,48.802z"/>
<path id="Path_3439" d="M1406.358,40.125c-6.207-0.012-11.229-5.053-11.218-11.26c0-0.001,0-0.002,0-0.003l0.037-17.64
	c0.012-6.208,5.053-11.233,11.262-11.223c6.209,0.013,11.234,5.057,11.222,11.267l-0.037,17.64
	c-0.011,6.207-5.052,11.23-11.259,11.219C1406.363,40.125,1406.361,40.125,1406.358,40.125z"/>
<path id="Path_3440" d="M1361.311,77.719c6.21,0.012,11.234,5.056,11.222,11.265c0,0,0,0,0,0l-0.022,10.522l-0.01,4.941
	c-0.012,6.208-5.055,11.231-11.264,11.218l0,0c-6.209-0.012-11.232-5.055-11.221-11.263l0.031-15.464
	C1350.059,82.729,1355.102,77.707,1361.311,77.719C1361.311,77.719,1361.311,77.719,1361.311,77.719z"/>
<path id="Path_3441" d="M1439.232,529.715l-719.585-1.443v1.443L0.002,528.272l0.5-247.747l0.243-120.414
	c0.011-6.207,5.051-11.229,11.258-11.218c0.002,0,0.004,0,0.006,0c6.208,0.011,11.232,5.052,11.221,11.261c0,0.001,0,0.002,0,0.003
	l-0.1,48.638c-0.012,6.209,5.013,11.253,11.222,11.265c6.207,0.01,11.249-5.011,11.263-11.218l0.024-11.928
	c0.01-6.208,5.052-11.232,11.26-11.222c0.001,0,0.002,0,0.003,0c6.208,0.013,11.231,5.056,11.219,11.265l-0.109,54.7
	c-0.014,6.21,5.009,11.255,11.219,11.269c0,0,0.001,0,0.001,0c6.209,0.012,11.253-5.012,11.265-11.222l0.121-60.538
	c0.013-6.209,5.056-11.231,11.265-11.219c0,0,0.001,0,0.002,0c6.207,0.012,11.229,5.053,11.218,11.26c0,0.002,0,0.004,0,0.006v2.918
	c-0.013,6.209,5.01,11.252,11.219,11.265c0,0,0,0,0,0c6.209,0.012,11.252-5.011,11.265-11.22l0.033-16.532
	c0.012-6.207,5.053-11.228,11.26-11.216c0.002,0,0.003,0,0.005,0c6.207,0.01,11.23,5.05,11.22,11.256c0,0.002,0,0.004,0,0.005
	l-0.129,65.476c-0.014,6.207,5.006,11.25,11.213,11.265c0.001,0,0.003,0,0.005,0c6.209,0.011,11.253-5.011,11.267-11.22
	l0.166-82.648c0.013-6.208,5.056-11.231,11.265-11.22c6.269,0.162,11.255,5.311,11.216,11.581l-0.02,10.552
	c-0.012,6.209,5.012,11.254,11.221,11.268c6.209,0.012,11.252-5.011,11.264-11.22c0,0,0-0.001,0-0.001l0.023-10.953
	c0.01-6.208,5.051-11.231,11.259-11.221c0.001,0,0.002,0,0.003,0c6.209,0.011,11.233,5.054,11.221,11.263c0,0,0,0,0,0.001
	l-0.138,68.523c-0.013,6.209,5.01,11.252,11.219,11.266c0.001,0,0.003,0,0.004,0c6.205,0.015,11.247-5.002,11.262-11.206
	c0-0.004,0-0.008,0-0.011l0.02-9.644c0.01-6.205,5.048-11.227,11.253-11.217c0.005,0,0.01,0,0.015,0
	c6.206,0.01,11.228,5.049,11.218,11.254c0,0.003,0,0.005,0,0.008l-0.065,32.523c-0.013,6.21,5.01,11.256,11.221,11.27
	c6.209,0.01,11.251-5.013,11.266-11.222l0.155-78.3c0.013-6.209,5.056-11.232,11.265-11.22c6.211,0.011,11.235,5.055,11.224,11.265
	l0,0l-0.095,46.054c-0.013,6.209,5.01,11.253,11.219,11.266s11.252-5.01,11.265-11.219c0,0,0-0.001,0-0.002l0.039-18.913
	c0.007-6.207,5.044-11.233,11.252-11.226c0.001,0,0.001,0,0.001,0c6.207,0.012,11.229,5.054,11.217,11.261c0,0.001,0,0.002,0,0.003
	l-0.074,36.653c-0.012,6.209,5.012,11.253,11.222,11.266c6.208,0.013,11.251-5.009,11.263-11.217c0-0.002,0-0.003,0-0.005
	l0.067-32.87c0.011-6.207,5.051-11.23,11.258-11.22c0.003,0,0.005,0,0.007,0c6.209,0.012,11.232,5.055,11.22,11.263
	c0,0.001,0,0.001,0,0.002l-0.03,15.132c-0.012,6.209,5.011,11.252,11.219,11.265c0.001,0,0.001,0,0.001,0
	c6.206,0.014,11.249-5.006,11.263-11.213c0-0.002,0-0.005,0-0.008l0.012-3.814c0.012-6.208,5.053-11.232,11.261-11.221
	c0.003,0,0.005,0,0.007,0c6.207,0.015,11.229,5.058,11.217,11.267l-0.054,27.387c-0.012,6.208,5.009,11.251,11.217,11.267
	c6.21,0.011,11.253-5.012,11.267-11.221l0.117-57.341c0.01-6.206,5.047-11.229,11.252-11.22c0.006,0,0.01,0,0.015,0
	c6.207,0.013,11.229,5.055,11.218,11.262l-0.023,11.317c-0.012,6.209,5.012,11.253,11.221,11.267
	c6.209,0.014,11.254-5.008,11.268-11.217c0-0.001,0-0.003,0-0.004c0.012-6.208,5.055-11.231,11.263-11.219c0.001,0,0.002,0,0.003,0
	c6.209,0.013,11.232,5.056,11.221,11.265l-0.063,31.815c-0.015,6.206,5.005,11.248,11.21,11.262c0.002,0,0.006,0,0.008,0
	c6.209,0.012,11.252-5.011,11.266-11.22l0.125-61.787c0.008-6.206,5.046-11.229,11.252-11.22c0.004,0,0.008,0,0.013,0
	c6.208,0.014,11.229,5.057,11.218,11.265l-0.007,4.218c-0.013,6.209,5.009,11.253,11.218,11.266c0.002,0,0.002,0,0.004,0
	c6.209,0.011,11.25-5.013,11.262-11.222c0,0,0,0,0-0.001l0.052-24.573l0.01-6.082c0.013-6.207,5.054-11.23,11.262-11.218
	c0.001,0,0.003,0,0.005,0c6.209,0.012,11.232,5.055,11.222,11.264l-0.015,6.084l-0.148,72.777
	c-0.012,6.21,5.012,11.254,11.221,11.268c6.211,0.012,11.254-5.012,11.267-11.222c0,0,0,0,0-0.001l0.132-64.688
	c0.014-6.209,5.057-11.231,11.266-11.22c6.208,0.015,11.229,5.058,11.217,11.266l-0.078,39.319
	c-0.014,6.208,5.008,11.251,11.215,11.265c0.002,0,0.004,0,0.005,0c6.209,0.014,11.253-5.007,11.269-11.216c0-0.002,0-0.003,0-0.004
	l0.1-47.409h0.13l-0.022,11.017c0.604-5.727,5.44-10.07,11.199-10.059c6.208,0.01,11.232,5.051,11.222,11.259
	c0,0.001,0,0.003,0,0.005l-0.101,48.638c-0.011,6.21,5.014,11.253,11.224,11.266c6.206,0.008,11.245-5.012,11.261-11.218
	l0.025-11.928c0.01-6.207,5.049-11.231,11.256-11.222c0.002,0,0.004,0,0.006,0c6.209,0.014,11.232,5.056,11.222,11.265l-0.11,54.7
	c-0.014,6.21,5.01,11.255,11.219,11.269c0.001,0,0.002,0,0.002,0c6.209,0.012,11.253-5.012,11.266-11.222l0.119-60.538
	c0.013-6.208,5.055-11.231,11.264-11.219c0.001,0,0.002,0,0.003,0c6.208,0.012,11.231,5.054,11.22,11.262c0,0.001,0,0.003,0,0.004
	l-0.004,2.918c-0.014,6.208,5.009,11.251,11.217,11.265s11.252-5.007,11.266-11.215c0-0.002,0-0.004,0-0.005l0.034-16.532
	c0.013-6.207,5.054-11.229,11.26-11.216c0.002,0,0.003,0,0.005,0c6.209,0.01,11.232,5.052,11.223,11.26c0,0,0,0,0,0.001
	l-0.131,65.476c-0.014,6.208,5.006,11.251,11.213,11.266c0.002,0,0.004,0,0.006,0c6.209,0.011,11.252-5.012,11.266-11.22
	l0.167-82.648c0.013-6.209,5.056-11.232,11.265-11.22c6.268,0.163,11.254,5.311,11.217,11.581l-0.021,10.552
	c-0.012,6.209,5.011,11.254,11.221,11.268c6.207,0.014,11.251-5.007,11.265-11.215c0-0.002,0-0.004,0-0.006l0.022-10.953
	c0.012-6.209,5.055-11.232,11.264-11.221s11.232,5.055,11.221,11.264l0,0l-0.139,68.524c-0.013,6.209,5.01,11.252,11.219,11.265
	c0.002,0,0.003,0,0.004,0c6.205,0.016,11.247-5.001,11.263-11.206c0-0.003,0-0.007,0-0.011l0.019-9.644
	c0.012-6.208,5.053-11.229,11.26-11.217c0.003,0,0.006,0,0.008,0c6.205,0.009,11.229,5.046,11.221,11.252c0,0.003,0,0.007,0,0.01
	l-0.066,32.523c-0.013,6.21,5.011,11.256,11.221,11.27c6.209,0.01,11.252-5.013,11.266-11.222l0.157-78.3
	c0.013-6.209,5.056-11.231,11.265-11.22c6.21,0.011,11.234,5.054,11.223,11.264c0,0,0,0.001,0,0.001l-0.094,46.054
	c-0.014,6.208,5.008,11.252,11.217,11.266c6.207,0.013,11.252-5.009,11.265-11.217c0-0.001,0-0.003,0-0.004l0.039-18.913
	c0.012-6.207,5.053-11.229,11.26-11.218c0.003,0,0.005,0,0.007,0c6.207,0.011,11.229,5.052,11.217,11.258c0,0.002,0,0.004,0,0.006
	l-0.072,36.653c-0.014,6.208,5.01,11.252,11.218,11.266c0.001,0,0.001,0,0.001,0c6.209,0.013,11.252-5.01,11.265-11.218
	c0-0.002,0-0.003,0-0.004l0.065-32.87c0.011-6.208,5.052-11.231,11.26-11.22c0.002,0,0.004,0,0.006,0
	c6.207,0.011,11.23,5.052,11.221,11.26c0,0.002,0,0.004,0,0.006l-0.03,15.132c-0.013,6.208,5.009,11.251,11.217,11.265
	c0.001,0,0.001,0,0.003,0c6.209,0.013,11.252-5.011,11.264-11.22c0,0,0,0,0-0.001l0.008-3.814
	c0.013-6.21,5.057-11.234,11.268-11.221l0,0c6.209,0.014,11.232,5.057,11.221,11.266l-0.057,27.387
	c-0.012,6.208,5.01,11.251,11.217,11.267c6.21,0.011,11.254-5.012,11.269-11.221l0.114-57.341c0.01-6.207,5.049-11.23,11.256-11.22
	c0.003,0,0.006,0,0.01,0c6.207,0.012,11.23,5.054,11.219,11.262l-0.022,11.317c-0.013,6.209,5.011,11.253,11.22,11.267
	c6.209,0.013,11.252-5.009,11.266-11.218c0-0.001,0-0.002,0-0.003c0.013-6.208,5.057-11.232,11.266-11.219c0,0,0.001,0,0.002,0
	c6.209,0.013,11.232,5.056,11.222,11.265l-0.065,31.815c-0.013,6.207,5.008,11.249,11.215,11.262c0.001,0,0.002,0,0.004,0
	c6.207,0.014,11.251-5.007,11.265-11.215c0-0.001,0-0.003,0-0.005l0.125-61.787c0.009-6.206,5.048-11.229,11.254-11.22
	c0.004,0,0.007,0,0.011,0c6.201,0.021,11.215,5.057,11.207,11.258l-0.008,4.218c-0.013,6.209,5.011,11.253,11.22,11.266
	c0.001,0,0.001,0,0.001,0c6.209,0.012,11.252-5.011,11.264-11.219c0-0.001,0-0.003,0-0.004l0.052-24.573l0.013-6.082
	c0.012-6.207,5.053-11.229,11.26-11.218c0.002,0,0.003,0,0.005,0c6.209,0.012,11.233,5.055,11.222,11.264l-0.013,6.084
	l-0.149,72.777c-0.012,6.209,5.01,11.253,11.22,11.268c6.209,0.014,11.253-5.009,11.267-11.218c0-0.002,0-0.003,0-0.005
	l0.131-64.688c0.015-6.208,5.057-11.23,11.266-11.22c6.209,0.014,11.23,5.057,11.221,11.265l-0.08,39.319
	c-0.014,6.208,5.007,11.251,11.215,11.265c0.001,0,0.002,0,0.004,0c6.209,0.013,11.253-5.009,11.266-11.218c0,0,0-0.001,0-0.002
	l0.101-47.409h0.129L1439.232,529.715z M34.302,242.909c-6.21-0.014-11.255,5.009-11.269,11.219c0,0.001,0,0.001,0,0.002
	c-0.012,6.209,5.013,11.252,11.222,11.264c0,0,0,0,0.001,0c6.208,0.013,11.25-5.009,11.263-11.217c0,0,0-0.001,0-0.001
	C45.532,247.968,40.511,242.924,34.302,242.909z M79.216,268.75c-6.207-0.016-11.25,5.005-11.264,11.211c0,0.002,0,0.004,0,0.006
	c-0.013,6.211,5.01,11.256,11.22,11.27c6.209,0.011,11.252-5.013,11.266-11.222c0.012-6.21-5.012-11.253-11.221-11.265
	C79.217,268.75,79.216,268.75,79.216,268.75L79.216,268.75z M124.296,213.5c-6.208-0.011-11.25,5.011-11.264,11.219l-0.03,15.023
	c-0.013,6.209,5.01,11.253,11.219,11.266s11.252-5.01,11.265-11.219v-0.001l0.031-15.025
	C135.527,218.555,130.504,213.513,124.296,213.5L124.296,213.5z M214.272,197.248c-6.209-0.012-11.253,5.011-11.266,11.22
	c-0.013,6.209,5.011,11.253,11.22,11.266c0,0,0,0,0,0c6.208,0.011,11.251-5.011,11.266-11.219
	C225.505,202.305,220.481,197.261,214.272,197.248h-0.001H214.272z M259.131,252.033c-6.21-0.01-11.254,5.015-11.267,11.226
	c-0.01,6.208,5.014,11.25,11.222,11.259c6.205,0.016,11.247-5.002,11.262-11.206c0-0.004,0-0.007,0-0.011
	C270.362,257.092,265.34,252.047,259.131,252.033L259.131,252.033z M394.031,254.876c-6.208-0.012-11.25,5.01-11.264,11.218
	c-0.013,6.209,5.01,11.252,11.219,11.266c0,0,0,0,0.001,0c6.208,0.014,11.251-5.01,11.265-11.218c0-0.001,0-0.002,0-0.003
	c0.012-6.208-5.01-11.25-11.217-11.263C394.033,254.876,394.033,254.876,394.031,254.876L394.031,254.876z M528.991,229.676
	c-6.209-0.012-11.253,5.011-11.267,11.22c-0.01,6.209,5.014,11.252,11.223,11.265c6.207,0.013,11.25-5.008,11.264-11.215
	c0-0.001,0-0.002,0-0.003c0.014-6.208-5.009-11.253-11.217-11.267C528.993,229.676,528.992,229.676,528.991,229.676L528.991,229.676
	z M573.912,254.531c-6.208-0.013-11.252,5.009-11.264,11.217l0,0l-0.03,15.025c-0.013,6.209,5.009,11.252,11.217,11.266
	c0.001,0,0.003,0,0.003,0c6.209,0.012,11.253-5.012,11.266-11.221l0.029-15.023c0.012-6.208-5.01-11.25-11.219-11.264H573.912z
	 M618.984,203.251c-6.208-0.014-11.252,5.007-11.266,11.215c0,0.001,0,0.003,0,0.004c-0.012,6.21,5.013,11.253,11.223,11.265
	c6.207,0.012,11.25-5.011,11.262-11.22c0,0,0-0.001,0-0.002c0.013-6.206-5.008-11.248-11.215-11.261c-0.002,0-0.004,0-0.006,0
	L618.984,203.251z M663.835,262.224c-6.208-0.009-11.249,5.013-11.265,11.22c-0.012,6.209,5.012,11.252,11.221,11.266
	c6.207,0.014,11.252-5.008,11.266-11.215c0-0.002,0-0.004,0-0.006c0.012-6.209-5.012-11.251-11.219-11.265H663.835z
	 M753.889,242.909c-6.211-0.014-11.256,5.01-11.27,11.221l0,0c-0.012,6.21,5.014,11.252,11.223,11.264
	c6.207,0.013,11.25-5.007,11.263-11.214c0-0.001,0-0.003,0-0.004C765.119,247.968,760.098,242.923,753.889,242.909
	C753.889,242.909,753.889,242.909,753.889,242.909L753.889,242.909z M798.803,268.75c-6.207-0.014-11.25,5.006-11.264,11.213
	c0,0.002,0,0.003,0,0.004c-0.014,6.21,5.008,11.256,11.217,11.27c0.001,0,0.002,0,0.002,0c6.21,0.011,11.253-5.013,11.267-11.222
	c0.013-6.208-5.009-11.252-11.217-11.265C798.807,268.75,798.805,268.75,798.803,268.75L798.803,268.75z M843.883,213.5
	c-6.209-0.011-11.25,5.011-11.264,11.219l-0.031,15.023c-0.012,6.209,5.012,11.253,11.221,11.266l0,0
	c6.209,0.012,11.252-5.011,11.266-11.22l0.029-15.025C855.113,218.555,850.09,213.514,843.883,213.5L843.883,213.5z
	 M933.858,197.248c-6.209-0.012-11.253,5.011-11.267,11.22c-0.012,6.209,5.012,11.253,11.221,11.266
	c6.209,0.012,11.252-5.01,11.266-11.219S940.068,197.262,933.858,197.248L933.858,197.248z M978.719,252.033
	c-6.211-0.01-11.254,5.017-11.267,11.228c-0.011,6.207,5.012,11.248,11.22,11.259c0,0,0.001,0,0.002,0
	c6.206,0.016,11.25-5.004,11.265-11.211c0-0.001,0-0.003,0-0.005c0.013-6.209-5.009-11.255-11.218-11.271H978.719z
	 M1113.619,254.876c-6.207-0.013-11.25,5.009-11.264,11.216c0,0.001,0,0.002,0,0.002c-0.012,6.209,5.012,11.253,11.221,11.266l0,0
	c6.209,0.012,11.252-5.012,11.264-11.221C1124.852,259.931,1119.828,254.888,1113.619,254.876L1113.619,254.876z M1248.579,229.676
	c-6.209-0.012-11.252,5.012-11.265,11.22c-0.012,6.209,5.012,11.252,11.221,11.265c6.208,0.013,11.252-5.01,11.264-11.218v0
	c0.014-6.208-5.008-11.253-11.217-11.267l0,0H1248.579z M1293.499,254.531c-6.208-0.013-11.251,5.01-11.263,11.217l-0.029,15.025
	c-0.014,6.207,5.008,11.252,11.215,11.266c0.001,0,0.002,0,0.003,0c6.208,0.014,11.251-5.008,11.265-11.215c0-0.002,0-0.004,0-0.006
	l0.031-15.023C1304.732,259.587,1299.709,254.544,1293.499,254.531L1293.499,254.531z M1338.572,203.251
	c-6.207-0.015-11.25,5.006-11.266,11.213c0,0.002,0,0.004,0,0.006c-0.012,6.209,5.012,11.253,11.221,11.265
	c6.207,0.013,11.25-5.007,11.264-11.214c0-0.003,0-0.005,0-0.008c0.012-6.206-5.009-11.248-11.215-11.261c-0.001,0-0.002,0-0.002,0
	L1338.572,203.251z M1383.424,262.224c-6.209-0.009-11.25,5.013-11.266,11.22c-0.012,6.209,5.012,11.252,11.221,11.266
	c6.207,0.014,11.252-5.008,11.266-11.217c0-0.002,0-0.003,0-0.004C1394.656,267.28,1389.633,262.236,1383.424,262.224
	L1383.424,262.224z"/>
<path id="Path_3442" d="M1316.215,142.015c-6.207-0.011-11.23-5.052-11.22-11.26c0-0.001,0-0.003,0-0.005l0.026-13.637
	c0.01-6.206,5.049-11.229,11.254-11.219c0.004,0,0.009,0,0.013,0c6.207,0.012,11.229,5.054,11.217,11.261v0l-0.026,13.637
	C1327.467,137.002,1322.424,142.026,1316.215,142.015z"/>
<path id="Path_3443" d="M1271.281,122.875c-6.209-0.011-11.232-5.053-11.222-11.262c0-0.001,0-0.002,0-0.002
	c0.015-6.209,5.06-11.231,11.269-11.218c6.209,0.012,11.232,5.055,11.22,11.263c0,0.001,0,0.001,0,0.001
	C1282.535,117.866,1277.49,122.888,1271.281,122.875L1271.281,122.875z"/>
<path id="Path_3444" d="M1226.438,59.826c-6.208-0.011-11.232-5.051-11.222-11.259c0-0.002,0-0.004,0-0.005l0.037-17.64
	c0.013-6.208,5.055-11.231,11.263-11.219c0,0,0.001,0,0.002,0c6.207,0.012,11.23,5.054,11.219,11.263c0,0,0,0.001,0,0.002
	l-0.036,17.64C1237.688,54.816,1232.645,59.838,1226.438,59.826z"/>
<path id="Path_3445" d="M641.753,62.871c-6.211-0.013-11.235-5.057-11.224-11.268c0.014-6.208,5.057-11.23,11.265-11.22
	c6.209,0.013,11.232,5.056,11.22,11.265C653.002,57.856,647.961,62.879,641.753,62.871z"/>
<path id="Path_3446" d="M506.814,77.449c6.209,0.011,11.232,5.053,11.221,11.262c0,0,0,0,0,0.001l-0.117,58.816v1.743
	c-0.013,6.209-5.057,11.234-11.266,11.222c-6.208-0.012-11.23-5.053-11.22-11.261c0-0.002,0-0.004,0-0.005v-1.743l0.047-24.72
	l0.069-34.1c0.014-6.208,5.057-11.229,11.264-11.215C506.814,77.449,506.814,77.449,506.814,77.449z"/>
<path id="Path_3447" d="M383.008,146.844c-0.012,6.207-5.053,11.229-11.26,11.218c-0.002,0-0.003,0-0.004,0
	c-6.209-0.011-11.233-5.054-11.222-11.263c0,0,0-0.001,0-0.001l0.101-47.88l0.033-17.255c0.014-6.208,5.057-11.23,11.265-11.218
	c0.002,0,0.005,0,0.007,0c6.207,0.012,11.229,5.053,11.216,11.26c0,0.001,0,0.003,0,0.004l-0.071,35L383.008,146.844z"/>
<path id="Path_3448" d="M326.795,147.842c-6.208-0.011-11.23-5.053-11.22-11.261v-0.001l0.01-5.5l0.011-4.88
	c0.013-6.208,5.055-11.23,11.262-11.218c0.002,0,0.003,0,0.004,0c6.209,0.011,11.232,5.053,11.223,11.262c0,0.001,0,0.001,0,0.002
	l-0.021,10.382C338.047,142.836,333.002,147.856,326.795,147.842z"/>
<path id="Path_3449" d="M416.77,129.408c6.207,0.012,11.229,5.053,11.217,11.26c0,0.002,0,0.003,0,0.005l-0.011,6.67l-0.041,20.381
	c-0.015,6.208-5.058,11.23-11.267,11.219c-6.208-0.013-11.23-5.057-11.217-11.265l0.041-20.381l0.012-6.671
	C405.518,134.417,410.561,129.395,416.77,129.408z"/>
<path id="Path_3450" d="M551.672,134.469c6.209,0.013,11.231,5.056,11.219,11.265v1.888l-0.027,13.061
	c-0.014,6.208-5.057,11.23-11.266,11.218s-11.234-5.055-11.223-11.264l0.025-13.061v-1.887
	C540.414,139.479,545.461,134.455,551.672,134.469C551.672,134.469,551.672,134.469,551.672,134.469z"/>
<path id="Path_3451" d="M281.733,193.528c-6.208-0.011-11.231-5.051-11.221-11.259c0-0.003,0-0.005,0-0.007l0.069-35.23h0.107
	c0.526-5.77,5.366-10.186,11.159-10.183c5.792,0.025,10.611,4.458,11.117,10.228h0.106l-0.072,35.232
	c-0.012,6.208-5.055,11.231-11.263,11.219C281.734,193.528,281.733,193.528,281.733,193.528z"/>
<path id="Path_3452" d="M472.945,147.438l-0.063,31.7c-0.012,6.208-5.053,11.23-11.26,11.218c-0.002,0-0.004,0-0.006,0
	c-6.206-0.009-11.23-5.048-11.221-11.255c0-0.003,0-0.006,0-0.009l0.063-31.7l0.062-30.552c0.015-6.209,5.058-11.232,11.267-11.221
	c6.209,0.014,11.23,5.057,11.22,11.265l-0.013,5.832L472.945,147.438z"/>
<path id="Path_3453" d="M416.889,70.533c6.209,0.013,11.231,5.056,11.219,11.265c0,0,0,0.001,0,0.001l-0.036,17.256l-0.026,13.465
	c-0.01,6.206-5.048,11.229-11.254,11.219c-0.004,0-0.007,0-0.011,0c-6.208-0.011-11.231-5.053-11.222-11.261
	c0-0.001,0-0.002,0-0.003l0.063-30.722C405.635,75.543,410.679,70.521,416.889,70.533L416.889,70.533z"/>
<path id="Path_3454" d="M12.043,128.943c-6.208-0.011-11.231-5.053-11.22-11.262l0,0l0.061-30.726
	c0.014-6.208,5.057-11.231,11.265-11.222c6.208,0.012,11.23,5.055,11.218,11.262c0,0.001,0,0.002,0,0.003v0.721l-0.06,30.006
	c-0.01,6.206-5.048,11.228-11.254,11.218C12.049,128.943,12.046,128.943,12.043,128.943z"/>
<path id="Path_3455" d="M416.918,55.314c-6.207-0.011-11.23-5.052-11.221-11.26c0-0.001,0-0.003,0-0.005
	c0.01-6.205,5.047-11.229,11.252-11.22c0.005,0,0.01,0,0.014,0c6.207,0.01,11.23,5.051,11.221,11.258c0,0.002,0,0.005,0,0.007
	c-0.011,6.208-5.051,11.23-11.258,11.22C416.923,55.314,416.92,55.314,416.918,55.314z"/>
<path id="Path_3456" d="M101.992,123.13c-6.209-0.012-11.232-5.055-11.22-11.264c0,0,0-0.001,0-0.001l0.064-30.722
	c0.011-6.206,5.051-11.229,11.258-11.218c0.002,0,0.005,0,0.007,0c6.207,0.01,11.229,5.05,11.219,11.257c0,0.003,0,0.005,0,0.008
	l-0.063,30.722c-0.01,6.205-5.048,11.228-11.254,11.218C102,123.13,101.996,123.13,101.992,123.13z"/>
<path id="Path_3457" d="M57.079,96.414c6.208,0.013,11.23,5.057,11.218,11.265l-0.046,22.9l-0.03,16.046l-0.028,13.06
	c-0.012,6.208-5.055,11.231-11.263,11.219c0,0,0,0-0.001,0c-6.208-0.013-11.231-5.055-11.22-11.263l0.027-13.062l0.076-38.944
	c0.012-6.208,5.054-11.233,11.263-11.221C57.076,96.414,57.078,96.414,57.079,96.414z"/>
<path id="Path_3458" d="M101.98,128.778c6.209,0.013,11.233,5.057,11.221,11.266l-0.012,6.671l-0.015,7.22
	c-0.013,6.208-5.056,11.232-11.265,11.219l0,0c-6.209-0.014-11.232-5.057-11.22-11.265l0.015-7.222l0.011-6.671
	C90.731,133.789,95.773,128.769,101.98,128.778z"/>
<path id="Path_3459" d="M57.109,81.072c-6.208-0.014-11.229-5.056-11.218-11.263c0.01-6.207,5.05-11.231,11.257-11.221
	c0.002,0,0.004,0,0.006,0c6.209,0.013,11.232,5.056,11.219,11.265l0,0c-0.012,6.208-5.053,11.231-11.261,11.219
	C57.112,81.072,57.11,81.072,57.109,81.072z"/>
<path id="Path_3460" d="M158.172,140.415c-0.014,6.21-5.058,11.233-11.268,11.221c-6.208-0.015-11.229-5.058-11.218-11.265
	l0.135-67.273c0.012-6.208,5.053-11.23,11.261-11.219c0.001,0,0.003,0,0.004,0c6.208,0.009,11.234,5.049,11.225,11.257
	c0,0.002,0,0.004,0,0.006l-0.1,48.944L158.172,140.415z"/>
<path id="Path_3461" d="M192.063,59.05c-6.207-0.012-11.229-5.053-11.218-11.26c0-0.002,0-0.003,0-0.005
	c0.009-6.205,5.046-11.228,11.251-11.219c0.004,0,0.009,0,0.013,0c6.208,0.011,11.23,5.053,11.219,11.261c0,0,0,0.001,0,0.002
	C203.316,54.039,198.273,59.063,192.063,59.05C192.063,59.05,192.063,59.05,192.063,59.05z"/>
<path id="Path_3462" d="M192.026,76.623c6.209,0.013,11.233,5.056,11.221,11.265l-0.036,17.641
	c-0.013,6.208-5.055,11.232-11.264,11.221c-6.209-0.013-11.232-5.056-11.22-11.265l0.035-17.644
	c0.012-6.208,5.054-11.23,11.262-11.218C192.024,76.623,192.025,76.623,192.026,76.623z"/>
<path id="Path_3463" d="M236.88,134.554c-6.208-0.013-11.23-5.054-11.219-11.262l0.032-15.275
	c0.011-6.208,5.053-11.232,11.261-11.221c0,0,0,0,0.001,0c6.209,0.012,11.234,5.056,11.222,11.265l-0.032,15.275
	c-0.012,6.208-5.054,11.23-11.262,11.218C236.882,134.554,236.881,134.554,236.88,134.554z"/>
<path id="Path_3464" d="M686.752,48.802c6.211,0.013,11.234,5.059,11.221,11.269l0,0l-0.029,14.159l-0.089,44.482
	c-0.013,6.21-5.056,11.234-11.265,11.222c-6.209-0.014-11.232-5.058-11.22-11.267l0.038-19.11l0.078-39.53
	C675.499,53.817,680.542,48.792,686.752,48.802z"/>
<path id="Path_3465" d="M686.77,40.125c-6.207-0.011-11.229-5.052-11.219-11.259c0-0.001,0-0.002,0-0.004l0.036-17.64
	c0.012-6.209,5.054-11.233,11.263-11.223c6.209,0.012,11.232,5.055,11.22,11.264c0,0.001,0,0.002,0,0.003l-0.035,17.64
	C698.021,35.115,692.979,40.137,686.77,40.125z"/>
<path id="Path_3466" d="M641.722,77.719c6.208,0.011,11.231,5.052,11.22,11.26c0,0.002,0,0.004,0,0.005l-0.02,10.522l-0.012,4.941
	c-0.012,6.208-5.053,11.23-11.26,11.218c-0.001,0-0.002,0-0.003,0c-6.208-0.012-11.232-5.055-11.222-11.263l0.03-15.464
	C630.469,82.729,635.513,77.707,641.722,77.719z"/>
<path id="Path_3467" d="M596.626,142.015c-6.208-0.011-11.231-5.052-11.22-11.26c0-0.001,0-0.003,0-0.005l0.026-13.637
	c0.01-6.206,5.049-11.229,11.255-11.219c0.004,0,0.007,0,0.01,0c6.208,0.012,11.23,5.054,11.219,11.262l-0.027,13.637
	C607.877,137.001,602.834,142.025,596.626,142.015z"/>
<path id="Path_3468" d="M551.693,122.875c-6.209-0.011-11.232-5.053-11.222-11.262c0-0.001,0-0.002,0-0.002
	c0.015-6.209,5.06-11.231,11.269-11.218s11.23,5.056,11.219,11.264C562.945,117.865,557.902,122.888,551.693,122.875
	L551.693,122.875z"/>
<path id="Path_3469" d="M506.85,59.826c-6.207-0.011-11.23-5.051-11.221-11.259c0-0.002,0-0.004,0-0.005l0.038-17.64
	c0.012-6.208,5.054-11.23,11.261-11.219c0.002,0,0.003,0,0.004,0c6.209,0.012,11.232,5.054,11.22,11.263c0,0,0,0.001,0,0.002
	l-0.036,17.64c-0.013,6.208-5.056,11.231-11.264,11.218C506.852,59.826,506.851,59.826,506.85,59.826z"/>
</svg>
