<svg xmlns="http://www.w3.org/2000/svg" width="1874.787" height="689.656" viewBox="0 0 1874.787 689.656">
  <g id="Group_10787" data-name="Group 10787" transform="translate(5791.283 -782.692)" opacity="0.036">
    <path id="Path_3419" data-name="Path 3419" d="M-4705.44,1153.1a14.643,14.643,0,0,0-14.61,14.671,14.641,14.641,0,0,0,14.666,14.607,14.639,14.639,0,0,0,14.607-14.666A14.641,14.641,0,0,0-4705.44,1153.1Z" transform="translate(686.536 237.391)" fill="#24272d"/>
    <path id="Path_3420" data-name="Path 3420" d="M-4812.423,1183.764a14.636,14.636,0,0,0,14.607-14.663l-.152-76.575-.007-2.269a14.637,14.637,0,0,0-14.666-14.61,14.632,14.632,0,0,0-14.6,14.668l0,2.27.064,32.184.091,44.391A14.632,14.632,0,0,0-4812.423,1183.764Z" transform="translate(617.837 187.75)" fill="#24272d"/>
    <path id="Path_3421" data-name="Path 3421" d="M-4905.011,1092.18a14.634,14.634,0,0,0-14.665-14.605,14.637,14.637,0,0,0-14.609,14.665l.124,62.337.045,22.466a14.635,14.635,0,0,0,14.672,14.605,14.631,14.631,0,0,0,14.6-14.665l-.094-45.566Z" transform="translate(549.237 188.986)" fill="#24272d"/>
    <path id="Path_3422" data-name="Path 3422" d="M-4955.343,1085.684a14.634,14.634,0,0,0-14.606,14.663l.014,7.164.015,6.354a14.635,14.635,0,0,0,14.664,14.605,14.636,14.636,0,0,0,14.611-14.665l-.026-13.516A14.637,14.637,0,0,0-4955.343,1085.684Z" transform="translate(526.38 194.183)" fill="#24272d"/>
    <path id="Path_3423" data-name="Path 3423" d="M-4883.9,1125.5a14.633,14.633,0,0,0,14.606-14.666l-.015-8.684-.053-26.535A14.643,14.643,0,0,0-4884.032,1061a14.636,14.636,0,0,0-14.605,14.666l.053,26.535.015,8.685A14.64,14.64,0,0,0-4883.9,1125.5Z" transform="translate(572.082 178.366)" fill="#24272d"/>
    <path id="Path_3424" data-name="Path 3424" d="M-4776.877,1115.331a14.637,14.637,0,0,0,14.607-14.666l0-2.458-.038-17a14.634,14.634,0,0,0-14.665-14.605,14.639,14.639,0,0,0-14.61,14.665l.036,17,0,2.457A14.637,14.637,0,0,0-4776.877,1115.331Z" transform="translate(640.691 181.951)" fill="#24272d"/>
    <path id="Path_3425" data-name="Path 3425" d="M-4991.093,1049.435A14.636,14.636,0,0,0-5005.7,1064.1l.094,45.868h.137a14.586,14.586,0,0,0,14.528,13.258,14.59,14.59,0,0,0,14.472-13.316h.138l-.091-45.869A14.637,14.637,0,0,0-4991.093,1049.435Z" transform="translate(503.466 170.952)" fill="#24272d"/>
    <path id="Path_3426" data-name="Path 3426" d="M-4833.617,1107.827l-.083-41.267a14.634,14.634,0,0,0-14.667-14.605,14.632,14.632,0,0,0-14.608,14.665l.083,41.265.08,39.777a14.64,14.64,0,0,0,14.669,14.609,14.639,14.639,0,0,0,14.6-14.666l-.016-7.592Z" transform="translate(594.937 172.567)" fill="#24272d"/>
    <path id="Path_3427" data-name="Path 3427" d="M-4883.8,1174.079a14.637,14.637,0,0,0,14.607-14.668l-.045-22.465-.036-17.531a14.629,14.629,0,0,0-14.665-14.606,14.634,14.634,0,0,0-14.609,14.665l.082,40A14.636,14.636,0,0,0-4883.8,1174.079Z" transform="translate(572.138 206.44)" fill="#24272d"/>
    <path id="Path_3428" data-name="Path 3428" d="M-5205.078,1100.679a14.633,14.633,0,0,0-14.6,14.663l.079,40a14.642,14.642,0,0,0,14.666,14.61,14.636,14.636,0,0,0,14.605-14.666l0-.939-.081-39.066A14.629,14.629,0,0,0-5205.078,1100.679Z" transform="translate(366.329 203.793)" fill="#24272d"/>
    <path id="Path_3429" data-name="Path 3429" d="M-4883.834,1159.1a14.634,14.634,0,0,0-14.607,14.666,14.629,14.629,0,0,0,14.666,14.607,14.633,14.633,0,0,0,14.607-14.666A14.632,14.632,0,0,0-4883.834,1159.1Z" transform="translate(572.208 241.234)" fill="#24272d"/>
    <path id="Path_3430" data-name="Path 3430" d="M-5133.707,1105.293a14.634,14.634,0,0,0-14.606,14.666l.081,40a14.634,14.634,0,0,0,14.667,14.605,14.632,14.632,0,0,0,14.607-14.666l-.083-40A14.629,14.629,0,0,0-5133.707,1105.293Z" transform="translate(412.069 206.75)" fill="#24272d"/>
    <path id="Path_3431" data-name="Path 3431" d="M-5169.27,1164.368a14.638,14.638,0,0,0,14.607-14.666l-.058-29.817-.043-20.89-.036-17a14.634,14.634,0,0,0-14.664-14.607,14.637,14.637,0,0,0-14.607,14.663l.036,17.006.1,50.7A14.638,14.638,0,0,0-5169.27,1164.368Z" transform="translate(389.154 182.455)" fill="#24272d"/>
    <path id="Path_3432" data-name="Path 3432" d="M-5133.679,1119.308a14.64,14.64,0,0,0,14.607-14.668l-.016-8.685-.021-9.4a14.635,14.635,0,0,0-14.666-14.607,14.638,14.638,0,0,0-14.607,14.666l.02,9.4.016,8.685A14.642,14.642,0,0,0-5133.679,1119.308Z" transform="translate(412.026 185.379)" fill="#24272d"/>
    <path id="Path_3433" data-name="Path 3433" d="M-5169.32,1138.662a14.635,14.635,0,0,0-14.605,14.663,14.634,14.634,0,0,0,14.665,14.609,14.638,14.638,0,0,0,14.608-14.666A14.638,14.638,0,0,0-5169.32,1138.662Z" transform="translate(389.246 228.136)" fill="#24272d"/>
    <path id="Path_3434" data-name="Path 3434" d="M-5083.4,1097.283a14.641,14.641,0,0,0-14.668-14.609,14.64,14.64,0,0,0-14.607,14.666l.176,87.585a14.636,14.636,0,0,0,14.666,14.607,14.635,14.635,0,0,0,14.61-14.665l-.128-63.722Z" transform="translate(434.906 192.254)" fill="#24272d"/>
    <path id="Path_3435" data-name="Path 3435" d="M-5062.243,1156.135a14.631,14.631,0,0,0-14.605,14.666,14.628,14.628,0,0,0,14.664,14.607,14.636,14.636,0,0,0,14.608-14.663A14.637,14.637,0,0,0-5062.243,1156.135Z" transform="translate(457.869 239.334)" fill="#24272d"/>
    <path id="Path_3436" data-name="Path 3436" d="M-5062.23,1162.6a14.635,14.635,0,0,0,14.606-14.666l-.046-22.968a14.637,14.637,0,0,0-14.664-14.609,14.637,14.637,0,0,0-14.607,14.666l.045,22.971A14.637,14.637,0,0,0-5062.23,1162.6Z" transform="translate(457.812 209.994)" fill="#24272d"/>
    <path id="Path_3437" data-name="Path 3437" d="M-5026.683,1096.227a14.636,14.636,0,0,0-14.607,14.663l.041,19.887a14.637,14.637,0,0,0,14.665,14.609,14.637,14.637,0,0,0,14.607-14.666l-.042-19.887A14.632,14.632,0,0,0-5026.683,1096.227Z" transform="translate(480.659 200.94)" fill="#24272d"/>
    <path id="Path_3438" data-name="Path 3438" d="M-4669.654,1205.525a14.641,14.641,0,0,0,14.607-14.671l-.038-18.434-.116-57.913a14.638,14.638,0,0,0-14.667-14.61,14.641,14.641,0,0,0-14.606,14.67l.051,24.881.1,51.465A14.641,14.641,0,0,0-4669.654,1205.525Z" transform="translate(709.336 203.291)" fill="#24272d"/>
    <path id="Path_3439" data-name="Path 3439" d="M-4669.726,1171.15a14.632,14.632,0,0,0-14.605,14.663l.048,22.966a14.638,14.638,0,0,0,14.662,14.612,14.64,14.64,0,0,0,14.609-14.67l-.048-22.966A14.633,14.633,0,0,0-4669.726,1171.15Z" transform="translate(709.429 248.957)" fill="#24272d"/>
    <path id="Path_3440" data-name="Path 3440" d="M-4705.428,1160.618a14.637,14.637,0,0,0,14.609-14.666l-.028-13.7-.013-6.432a14.635,14.635,0,0,0-14.665-14.605,14.636,14.636,0,0,0-14.608,14.665l.041,20.134A14.635,14.635,0,0,0-4705.428,1160.618Z" transform="translate(686.483 210.545)" fill="#24272d"/>
    <path id="Path_3441" data-name="Path 3441" d="M-3917.5,782.692l-936.853,1.88,0-1.88-936.932,1.88.647,322.55.316,156.772a14.632,14.632,0,0,0,14.665,14.605,14.635,14.635,0,0,0,14.608-14.665l-.128-63.323a14.639,14.639,0,0,1,14.61-14.666,14.639,14.639,0,0,1,14.663,14.605l.031,15.529a14.636,14.636,0,0,0,14.664,14.611,14.639,14.639,0,0,0,14.607-14.666l-.143-71.211a14.64,14.64,0,0,1,14.607-14.671,14.639,14.639,0,0,1,14.666,14.61l.157,78.817a14.636,14.636,0,0,0,14.668,14.607,14.632,14.632,0,0,0,14.605-14.668l-.006-3.8a14.636,14.636,0,0,1,14.606-14.666,14.638,14.638,0,0,1,14.667,14.607l.042,21.523a14.631,14.631,0,0,0,14.666,14.6,14.631,14.631,0,0,0,14.608-14.661l-.168-85.245a14.632,14.632,0,0,1,14.605-14.666,14.642,14.642,0,0,1,14.668,14.607l.216,107.6a14.638,14.638,0,0,0,14.666,14.607c8.082-.018,14.621-6.992,14.6-15.078l-.025-13.737a14.641,14.641,0,0,1,14.608-14.67,14.637,14.637,0,0,1,14.666,14.609l.029,14.261a14.635,14.635,0,0,0,14.663,14.609,14.636,14.636,0,0,0,14.608-14.665l-.179-89.213a14.637,14.637,0,0,1,14.61-14.666,14.625,14.625,0,0,1,14.663,14.6l.025,12.556a14.628,14.628,0,0,0,14.671,14.6,14.63,14.63,0,0,0,14.605-14.663l-.085-42.343a14.642,14.642,0,0,1,14.608-14.673,14.643,14.643,0,0,1,14.666,14.61l.2,101.945a14.639,14.639,0,0,0,14.666,14.607,14.639,14.639,0,0,0,14.611-14.666l-.122-59.96a14.636,14.636,0,0,1,14.6-14.668,14.636,14.636,0,0,1,14.666,14.609l.051,24.623a14.632,14.632,0,0,0,14.67,14.606,14.633,14.633,0,0,0,14.6-14.665l-.1-47.72a14.639,14.639,0,0,1,14.608-14.668,14.634,14.634,0,0,1,14.664,14.61l.087,42.794a14.632,14.632,0,0,0,14.666,14.607,14.634,14.634,0,0,0,14.606-14.666l-.039-19.7a14.636,14.636,0,0,1,14.606-14.666,14.631,14.631,0,0,1,14.664,14.609l.014,4.965a14.635,14.635,0,0,0,14.669,14.609,14.638,14.638,0,0,0,14.605-14.668l-.07-35.656a14.641,14.641,0,0,1,14.6-14.669,14.644,14.644,0,0,1,14.669,14.609l.151,74.654a14.629,14.629,0,0,0,14.667,14.607,14.636,14.636,0,0,0,14.605-14.663l-.031-14.734a14.642,14.642,0,0,1,14.608-14.669,14.636,14.636,0,0,1,14.668,14.609,14.635,14.635,0,0,0,14.668,14.607,14.639,14.639,0,0,0,14.608-14.666l-.083-41.421a14.629,14.629,0,0,1,14.605-14.663,14.637,14.637,0,0,1,14.666,14.607l.163,80.443a14.629,14.629,0,0,0,14.666,14.607,14.639,14.639,0,0,0,14.605-14.666l-.01-5.492a14.636,14.636,0,0,1,14.608-14.668,14.636,14.636,0,0,1,14.663,14.612l.067,31.992.014,7.919a14.633,14.633,0,0,0,14.667,14.606,14.638,14.638,0,0,0,14.609-14.665l-.018-7.92-.194-94.751a14.641,14.641,0,0,1,14.608-14.67,14.639,14.639,0,0,1,14.668,14.612l.172,84.22a14.64,14.64,0,0,0,14.667,14.607,14.637,14.637,0,0,0,14.6-14.666l-.1-51.191a14.634,14.634,0,0,1,14.606-14.666,14.636,14.636,0,0,1,14.669,14.607l.125,61.723h.169l-.03-14.343a14.634,14.634,0,0,0,14.585,13.1,14.633,14.633,0,0,0,14.608-14.665l-.128-63.323a14.641,14.641,0,0,1,14.612-14.666,14.641,14.641,0,0,1,14.661,14.605l.033,15.529a14.633,14.633,0,0,0,14.663,14.611,14.641,14.641,0,0,0,14.608-14.666l-.143-71.211a14.638,14.638,0,0,1,14.606-14.671,14.639,14.639,0,0,1,14.666,14.61l.156,78.817a14.636,14.636,0,0,0,14.668,14.607,14.634,14.634,0,0,0,14.607-14.668l-.007-3.8a14.637,14.637,0,0,1,14.605-14.666,14.634,14.634,0,0,1,14.666,14.607l.044,21.523a14.631,14.631,0,0,0,14.666,14.6,14.635,14.635,0,0,0,14.61-14.661l-.171-85.245a14.633,14.633,0,0,1,14.606-14.666,14.638,14.638,0,0,1,14.666,14.607l.218,107.6a14.639,14.639,0,0,0,14.666,14.607c8.083-.018,14.62-6.992,14.6-15.078l-.026-13.737a14.642,14.642,0,0,1,14.607-14.67,14.633,14.633,0,0,1,14.666,14.609l.029,14.261a14.636,14.636,0,0,0,14.665,14.609,14.636,14.636,0,0,0,14.607-14.665l-.18-89.213a14.637,14.637,0,0,1,14.611-14.666,14.627,14.627,0,0,1,14.663,14.6l.023,12.556a14.631,14.631,0,0,0,14.67,14.6,14.629,14.629,0,0,0,14.607-14.663l-.086-42.343a14.643,14.643,0,0,1,14.609-14.673,14.643,14.643,0,0,1,14.666,14.61l.2,101.945A14.639,14.639,0,0,0-4429,1260.618a14.638,14.638,0,0,0,14.61-14.666l-.122-59.96a14.636,14.636,0,0,1,14.6-14.668,14.636,14.636,0,0,1,14.666,14.609l.051,24.623a14.633,14.633,0,0,0,14.669,14.606,14.632,14.632,0,0,0,14.6-14.665l-.094-47.72a14.636,14.636,0,0,1,14.606-14.668,14.635,14.635,0,0,1,14.665,14.61l.086,42.794a14.633,14.633,0,0,0,14.667,14.607,14.635,14.635,0,0,0,14.607-14.666l-.039-19.7a14.634,14.634,0,0,1,14.606-14.666,14.636,14.636,0,0,1,14.665,14.609l.011,4.965a14.639,14.639,0,0,0,14.67,14.609,14.639,14.639,0,0,0,14.607-14.668l-.072-35.656a14.641,14.641,0,0,1,14.6-14.669,14.645,14.645,0,0,1,14.67,14.609l.148,74.654a14.632,14.632,0,0,0,14.668,14.607,14.636,14.636,0,0,0,14.606-14.663l-.03-14.734a14.64,14.64,0,0,1,14.607-14.669,14.636,14.636,0,0,1,14.668,14.609,14.636,14.636,0,0,0,14.668,14.607,14.64,14.64,0,0,0,14.609-14.666l-.085-41.421a14.631,14.631,0,0,1,14.605-14.663,14.633,14.633,0,0,1,14.666,14.607l.163,80.443A14.63,14.63,0,0,0-4077.7,1268.2a14.637,14.637,0,0,0,14.605-14.666l-.01-5.492a14.637,14.637,0,0,1,14.608-14.668,14.635,14.635,0,0,1,14.663,14.612l.067,31.992.015,7.919a14.633,14.633,0,0,0,14.666,14.606,14.638,14.638,0,0,0,14.609-14.665l-.016-7.92-.194-94.751a14.64,14.64,0,0,1,14.607-14.67,14.636,14.636,0,0,1,14.667,14.612l.172,84.22a14.642,14.642,0,0,0,14.667,14.607,14.64,14.64,0,0,0,14.607-14.666l-.1-51.191a14.633,14.633,0,0,1,14.607-14.666,14.636,14.636,0,0,1,14.667,14.607l.125,61.723h.169Zm-1829.128,373.4a14.639,14.639,0,0,1-14.671-14.609,14.638,14.638,0,0,1,14.611-14.665,14.634,14.634,0,0,1,14.663,14.605A14.639,14.639,0,0,1-5746.624,1156.095Zm58.475-33.643a14.632,14.632,0,0,1-14.665-14.605,14.641,14.641,0,0,1,14.607-14.671,14.643,14.643,0,0,1,14.667,14.61A14.637,14.637,0,0,1-5688.149,1122.452Zm58.691,71.932a14.64,14.64,0,0,1-14.665-14.607l-.039-19.559a14.638,14.638,0,0,1,14.606-14.668,14.637,14.637,0,0,1,14.666,14.607l.04,19.561A14.639,14.639,0,0,1-5629.458,1194.383Zm117.143,21.159a14.639,14.639,0,0,1-14.668-14.607,14.638,14.638,0,0,1,14.607-14.668,14.641,14.641,0,0,1,14.667,14.607A14.638,14.638,0,0,1-5512.315,1215.543Zm58.4-71.326a14.647,14.647,0,0,1-14.668-14.615,14.634,14.634,0,0,1,14.609-14.658,14.626,14.626,0,0,1,14.663,14.6A14.639,14.639,0,0,1-5453.912,1144.217Zm175.634-3.7a14.635,14.635,0,0,1-14.664-14.605,14.637,14.637,0,0,1,14.606-14.668,14.636,14.636,0,0,1,14.665,14.609A14.634,14.634,0,0,1-5278.278,1140.515Zm175.71,32.81a14.638,14.638,0,0,1-14.667-14.607,14.641,14.641,0,0,1,14.609-14.666,14.633,14.633,0,0,1,14.664,14.606A14.636,14.636,0,0,1-5102.568,1173.324Zm58.484-32.36a14.634,14.634,0,0,1-14.665-14.605l-.039-19.561a14.636,14.636,0,0,1,14.607-14.666,14.637,14.637,0,0,1,14.666,14.607l.039,19.559A14.638,14.638,0,0,1-5044.084,1140.964Zm58.681,66.763a14.634,14.634,0,0,1-14.666-14.607,14.638,14.638,0,0,1,14.609-14.666,14.634,14.634,0,0,1,14.663,14.61A14.632,14.632,0,0,1-4985.4,1207.727Zm58.394-76.779a14.643,14.643,0,0,1-14.666-14.607,14.639,14.639,0,0,1,14.608-14.666,14.634,14.634,0,0,1,14.667,14.609A14.637,14.637,0,0,1-4927.01,1130.948Zm117.242,25.147a14.64,14.64,0,0,1-14.671-14.609,14.639,14.639,0,0,1,14.611-14.665,14.632,14.632,0,0,1,14.663,14.605A14.637,14.637,0,0,1-4809.768,1156.095Zm58.475-33.643a14.632,14.632,0,0,1-14.664-14.605,14.638,14.638,0,0,1,14.606-14.671,14.644,14.644,0,0,1,14.668,14.61A14.637,14.637,0,0,1-4751.293,1122.452Zm58.691,71.932a14.638,14.638,0,0,1-14.664-14.607l-.041-19.559a14.639,14.639,0,0,1,14.608-14.668,14.639,14.639,0,0,1,14.666,14.607l.039,19.561A14.639,14.639,0,0,1-4692.6,1194.383Zm117.143,21.159a14.64,14.64,0,0,1-14.668-14.607,14.639,14.639,0,0,1,14.607-14.668,14.64,14.64,0,0,1,14.668,14.607A14.64,14.64,0,0,1-4575.459,1215.543Zm58.405-71.326a14.645,14.645,0,0,1-14.669-14.615,14.633,14.633,0,0,1,14.608-14.658,14.629,14.629,0,0,1,14.665,14.6A14.642,14.642,0,0,1-4517.054,1144.217Zm175.632-3.7a14.634,14.634,0,0,1-14.664-14.605,14.638,14.638,0,0,1,14.607-14.668,14.636,14.636,0,0,1,14.664,14.609A14.636,14.636,0,0,1-4341.422,1140.515Zm175.709,32.81a14.639,14.639,0,0,1-14.666-14.607,14.641,14.641,0,0,1,14.609-14.666,14.634,14.634,0,0,1,14.664,14.606A14.636,14.636,0,0,1-4165.713,1173.324Zm58.484-32.36a14.635,14.635,0,0,1-14.664-14.605l-.038-19.561a14.635,14.635,0,0,1,14.605-14.666,14.633,14.633,0,0,1,14.666,14.607l.04,19.559A14.638,14.638,0,0,1-4107.229,1140.964Zm58.682,66.763a14.633,14.633,0,0,1-14.666-14.607,14.639,14.639,0,0,1,14.608-14.666,14.632,14.632,0,0,1,14.663,14.61A14.631,14.631,0,0,1-4048.547,1207.727Zm58.393-76.779a14.644,14.644,0,0,1-14.666-14.607,14.64,14.64,0,0,1,14.608-14.666,14.634,14.634,0,0,1,14.667,14.609A14.637,14.637,0,0,1-3990.154,1130.948Z" transform="translate(0 0)" fill="#24272d"/>
    <path id="Path_3442" data-name="Path 3442" d="M-4741.248,1090.307a14.632,14.632,0,0,0-14.607,14.666l.035,17.754a14.63,14.63,0,0,0,14.668,14.607,14.632,14.632,0,0,0,14.6-14.663l-.035-17.754A14.638,14.638,0,0,0-4741.248,1090.307Z" transform="translate(663.59 197.146)" fill="#24272d"/>
    <path id="Path_3443" data-name="Path 3443" d="M-4776.9,1105.494a14.636,14.636,0,0,0-14.61,14.665,14.64,14.64,0,0,0,14.671,14.606,14.634,14.634,0,0,0,14.605-14.665A14.636,14.636,0,0,0-4776.9,1105.494Z" transform="translate(640.741 206.879)" fill="#24272d"/>
    <path id="Path_3444" data-name="Path 3444" d="M-4812.479,1155.519a14.633,14.633,0,0,0-14.608,14.665l.048,22.966a14.636,14.636,0,0,0,14.666,14.607,14.635,14.635,0,0,0,14.606-14.666l-.047-22.966A14.636,14.636,0,0,0-4812.479,1155.519Z" transform="translate(617.938 238.939)" fill="#24272d"/>
    <path id="Path_3445" data-name="Path 3445" d="M-5276.389,1153.1A14.643,14.643,0,0,0-5291,1167.774a14.641,14.641,0,0,0,14.666,14.607,14.638,14.638,0,0,0,14.607-14.666A14.641,14.641,0,0,0-5276.389,1153.1Z" transform="translate(320.626 237.391)" fill="#24272d"/>
    <path id="Path_3446" data-name="Path 3446" d="M-5383.369,1183.764a14.636,14.636,0,0,0,14.607-14.663l-.153-76.575,0-2.269a14.64,14.64,0,0,0-14.667-14.61,14.633,14.633,0,0,0-14.605,14.668l.006,2.27.062,32.184.091,44.391A14.633,14.633,0,0,0-5383.369,1183.764Z" transform="translate(251.925 187.75)" fill="#24272d"/>
    <path id="Path_3447" data-name="Path 3447" d="M-5475.958,1092.18a14.633,14.633,0,0,0-14.665-14.605,14.635,14.635,0,0,0-14.608,14.665l.124,62.337.045,22.466a14.634,14.634,0,0,0,14.673,14.605,14.631,14.631,0,0,0,14.6-14.665l-.094-45.566Z" transform="translate(183.327 188.986)" fill="#24272d"/>
    <path id="Path_3448" data-name="Path 3448" d="M-5526.29,1085.684a14.634,14.634,0,0,0-14.605,14.663l.013,7.164.014,6.354a14.635,14.635,0,0,0,14.666,14.605,14.636,14.636,0,0,0,14.61-14.665l-.026-13.516A14.635,14.635,0,0,0-5526.29,1085.684Z" transform="translate(160.47 194.183)" fill="#24272d"/>
    <path id="Path_3449" data-name="Path 3449" d="M-5454.849,1125.5a14.632,14.632,0,0,0,14.605-14.666l-.014-8.684-.054-26.535A14.642,14.642,0,0,0-5454.978,1061a14.636,14.636,0,0,0-14.605,14.666l.053,26.535.015,8.685A14.638,14.638,0,0,0-5454.849,1125.5Z" transform="translate(206.172 178.366)" fill="#24272d"/>
    <path id="Path_3450" data-name="Path 3450" d="M-5347.822,1115.331a14.637,14.637,0,0,0,14.606-14.666l0-2.458-.036-17a14.638,14.638,0,0,0-14.666-14.605,14.639,14.639,0,0,0-14.611,14.665l.034,17,.006,2.457A14.64,14.64,0,0,0-5347.822,1115.331Z" transform="translate(274.78 181.951)" fill="#24272d"/>
    <path id="Path_3451" data-name="Path 3451" d="M-5562.04,1049.435a14.634,14.634,0,0,0-14.609,14.668l.091,45.868h.139a14.585,14.585,0,0,0,14.528,13.258,14.592,14.592,0,0,0,14.473-13.316h.138l-.093-45.869A14.635,14.635,0,0,0-5562.04,1049.435Z" transform="translate(137.555 170.952)" fill="#24272d"/>
    <path id="Path_3452" data-name="Path 3452" d="M-5404.564,1107.827l-.082-41.267a14.633,14.633,0,0,0-14.666-14.605,14.631,14.631,0,0,0-14.608,14.665l.081,41.265.079,39.777a14.643,14.643,0,0,0,14.67,14.609,14.641,14.641,0,0,0,14.606-14.666l-.017-7.592Z" transform="translate(229.026 172.567)" fill="#24272d"/>
    <path id="Path_3453" data-name="Path 3453" d="M-5454.749,1174.079a14.636,14.636,0,0,0,14.606-14.668l-.046-22.465-.036-17.531a14.629,14.629,0,0,0-14.665-14.606,14.634,14.634,0,0,0-14.608,14.665l.082,40A14.637,14.637,0,0,0-5454.749,1174.079Z" transform="translate(206.227 206.44)" fill="#24272d"/>
    <path id="Path_3454" data-name="Path 3454" d="M-5776.022,1100.679a14.635,14.635,0,0,0-14.607,14.663l.08,40a14.643,14.643,0,0,0,14.666,14.61,14.635,14.635,0,0,0,14.605-14.666v-.939l-.078-39.066A14.628,14.628,0,0,0-5776.022,1100.679Z" transform="translate(0.419 203.793)" fill="#24272d"/>
    <path id="Path_3455" data-name="Path 3455" d="M-5454.78,1159.1a14.634,14.634,0,0,0-14.607,14.666,14.629,14.629,0,0,0,14.666,14.607,14.632,14.632,0,0,0,14.607-14.666A14.632,14.632,0,0,0-5454.78,1159.1Z" transform="translate(206.297 241.234)" fill="#24272d"/>
    <path id="Path_3456" data-name="Path 3456" d="M-5704.653,1105.293a14.635,14.635,0,0,0-14.607,14.666l.084,40a14.63,14.63,0,0,0,14.666,14.605A14.632,14.632,0,0,0-5689.9,1159.9l-.083-40A14.629,14.629,0,0,0-5704.653,1105.293Z" transform="translate(46.157 206.75)" fill="#24272d"/>
    <path id="Path_3457" data-name="Path 3457" d="M-5740.213,1164.368a14.635,14.635,0,0,0,14.6-14.666l-.059-29.817-.04-20.89-.036-17a14.636,14.636,0,0,0-14.665-14.607,14.637,14.637,0,0,0-14.607,14.663l.036,17.006.1,50.7A14.638,14.638,0,0,0-5740.213,1164.368Z" transform="translate(23.243 182.455)" fill="#24272d"/>
    <path id="Path_3458" data-name="Path 3458" d="M-5704.626,1119.308a14.639,14.639,0,0,0,14.608-14.668l-.016-8.685-.02-9.4a14.635,14.635,0,0,0-14.666-14.607,14.639,14.639,0,0,0-14.607,14.666l.02,9.4.015,8.685A14.643,14.643,0,0,0-5704.626,1119.308Z" transform="translate(46.115 185.379)" fill="#24272d"/>
    <path id="Path_3459" data-name="Path 3459" d="M-5740.266,1138.662a14.637,14.637,0,0,0-14.605,14.663,14.633,14.633,0,0,0,14.664,14.609,14.637,14.637,0,0,0,14.607-14.666A14.635,14.635,0,0,0-5740.266,1138.662Z" transform="translate(23.335 228.136)" fill="#24272d"/>
    <path id="Path_3460" data-name="Path 3460" d="M-5654.351,1097.283a14.64,14.64,0,0,0-14.669-14.609,14.639,14.639,0,0,0-14.605,14.666l.176,87.585a14.633,14.633,0,0,0,14.666,14.607,14.635,14.635,0,0,0,14.61-14.665l-.13-63.722Z" transform="translate(68.996 192.254)" fill="#24272d"/>
    <path id="Path_3461" data-name="Path 3461" d="M-5633.189,1156.135a14.632,14.632,0,0,0-14.605,14.666,14.627,14.627,0,0,0,14.665,14.607,14.635,14.635,0,0,0,14.606-14.663A14.638,14.638,0,0,0-5633.189,1156.135Z" transform="translate(91.959 239.334)" fill="#24272d"/>
    <path id="Path_3462" data-name="Path 3462" d="M-5633.178,1162.6a14.639,14.639,0,0,0,14.609-14.666l-.046-22.968a14.64,14.64,0,0,0-14.665-14.609,14.637,14.637,0,0,0-14.607,14.666l.045,22.971A14.635,14.635,0,0,0-5633.178,1162.6Z" transform="translate(91.9 209.994)" fill="#24272d"/>
    <path id="Path_3463" data-name="Path 3463" d="M-5597.629,1096.227a14.636,14.636,0,0,0-14.606,14.663l.041,19.887a14.635,14.635,0,0,0,14.662,14.609,14.638,14.638,0,0,0,14.609-14.666l-.041-19.887A14.635,14.635,0,0,0-5597.629,1096.227Z" transform="translate(114.748 200.94)" fill="#24272d"/>
    <path id="Path_3464" data-name="Path 3464" d="M-5240.6,1205.525a14.641,14.641,0,0,0,14.609-14.671l-.04-18.434-.115-57.913a14.64,14.64,0,0,0-14.666-14.61,14.639,14.639,0,0,0-14.606,14.67l.05,24.881.1,51.465A14.644,14.644,0,0,0-5240.6,1205.525Z" transform="translate(343.425 203.291)" fill="#24272d"/>
    <path id="Path_3465" data-name="Path 3465" d="M-5240.671,1171.15a14.632,14.632,0,0,0-14.605,14.663l.047,22.966a14.639,14.639,0,0,0,14.663,14.612,14.637,14.637,0,0,0,14.606-14.67l-.045-22.966A14.637,14.637,0,0,0-5240.671,1171.15Z" transform="translate(343.518 248.957)" fill="#24272d"/>
    <path id="Path_3466" data-name="Path 3466" d="M-5276.375,1160.618a14.634,14.634,0,0,0,14.607-14.666l-.026-13.7-.014-6.432a14.633,14.633,0,0,0-14.663-14.605,14.637,14.637,0,0,0-14.609,14.665l.039,20.134A14.637,14.637,0,0,0-5276.375,1160.618Z" transform="translate(320.572 210.545)" fill="#24272d"/>
    <path id="Path_3467" data-name="Path 3467" d="M-5312.193,1090.307a14.633,14.633,0,0,0-14.607,14.666l.035,17.754a14.629,14.629,0,0,0,14.666,14.607,14.634,14.634,0,0,0,14.605-14.663l-.035-17.754A14.639,14.639,0,0,0-5312.193,1090.307Z" transform="translate(297.68 197.146)" fill="#24272d"/>
    <path id="Path_3468" data-name="Path 3468" d="M-5347.843,1105.494a14.638,14.638,0,0,0-14.611,14.665,14.641,14.641,0,0,0,14.672,14.606,14.635,14.635,0,0,0,14.605-14.665A14.636,14.636,0,0,0-5347.843,1105.494Z" transform="translate(274.83 206.879)" fill="#24272d"/>
    <path id="Path_3469" data-name="Path 3469" d="M-5383.425,1155.519a14.634,14.634,0,0,0-14.609,14.665l.049,22.966a14.634,14.634,0,0,0,14.666,14.607,14.636,14.636,0,0,0,14.606-14.666l-.047-22.966A14.635,14.635,0,0,0-5383.425,1155.519Z" transform="translate(252.027 238.939)" fill="#24272d"/>
  </g>
</svg>
